<?xml version="1.0" encoding="UTF-8" standalone="no"?>
<!-- Created with Inkscape (http://www.inkscape.org/) -->

<svg
   version="1.1"
   id="svg1"
   width="928"
   height="917.33331"
   viewBox="0 0 928 917.33331"
   sodipodi:docname="icon.svg"
   inkscape:version="1.3 (0e150ed6c4, 2023-07-21)"
   xmlns:inkscape="http://www.inkscape.org/namespaces/inkscape"
   xmlns:sodipodi="http://sodipodi.sourceforge.net/DTD/sodipodi-0.dtd"
   xmlns="http://www.w3.org/2000/svg"
   xmlns:svg="http://www.w3.org/2000/svg">
  <defs
     id="defs1" />
  <sodipodi:namedview
     id="namedview1"
     pagecolor="#ffffff"
     bordercolor="#666666"
     borderopacity="1.0"
     inkscape:showpageshadow="2"
     inkscape:pageopacity="0.0"
     inkscape:pagecheckerboard="false"
     inkscape:deskcolor="#d1d1d1"
     inkscape:zoom="0.74895816"
     inkscape:cx="347.81649"
     inkscape:cy="455.96672"
     inkscape:window-width="1920"
     inkscape:window-height="1011"
     inkscape:window-x="0"
     inkscape:window-y="32"
     inkscape:window-maximized="1"
     inkscape:current-layer="g1"
     showgrid="false" />
  <g
     inkscape:groupmode="layer"
     inkscape:label="Image"
     id="g1">
    <path
       style="fill:#000000"
       d="m 439.33333,792.38059 c -95.01616,-18.16335 -122.0491,-125.59611 -122.8669,-208.69881 -14.8575,-99.33514 -49.39974,-218.40781 23.48044,-303.61545 67.73756,-74.61918 206.57136,-67.95716 255.49618,24.93222 54.39713,94.82539 11.02918,204.83096 3.14109,305.54926 -8.32817,70.9645 -30.88049,156.41577 -108.49084,179.24736 -16.33659,5.12946 -33.99201,6.23193 -50.75997,2.58542 z m 54.02218,-8.08249 c 91.82334,-34.11613 99.60567,-144.10361 107.69277,-227.37793 15.7177,-92.08985 40.64333,-205.5992 -33.44957,-279.87981 -67.89638,-67.19562 -197.13141,-56.80811 -242.64382,31.38075 -55.78664,95.58315 -7.87734,205.73653 -1.43946,307.19001 6.90563,72.48719 36.19988,160.2243 118.60202,173.6173 17.1004,3.07858 35.07499,1.55615 51.23806,-4.93032 z m -44.68884,-151.84824 c -83.216,-10.64484 -24.24272,-157.99832 42.09634,-95.6473 37.41583,35.36865 14.53851,107.10969 -42.09634,95.6473 z m 17.94624,-1.89624 c 79.17296,-9.83393 24.93759,-150.15383 -40.06634,-92.10292 -34.89558,30.75262 -12.99815,106.4592 40.06634,92.10292 z m -20.61291,-154.57645 c -102.85057,-2.0993 -84.69091,-188.41096 20.62947,-157.78808 82.4613,15.23022 82.42725,141.4749 0.44784,156.7246 l -10.42594,1.40526 z m 18.41126,-8.08294 c 100.29537,-6.93928 60.39987,-188.77512 -35.80625,-138.87031 -68.44104,32.01047 -49.46526,154.68173 35.80625,138.87031 z m -366.747333,139.8504 c -96.633372,-122.76241 -98.47826843,-311.56754 -0.992785,-434.39929 24.220978,61.29659 -55.266892,102.73267 -44.806254,165.28673 -7.079919,88.57306 10.171925,183.10791 66.707072,253.92387 0.15565,9.11592 -10.9438,25.25157 -20.908033,15.18869 z m 17.733163,-14.41131 c -88.697343,-113.60456 -92.342977,-287.05966 -4.14422,-402.00496 -73.143453,22.13733 -71.40995,120.27618 -83.705105,183.91429 -4.16097,81.91008 21.444339,165.58489 73.176695,229.53201 7.27635,2.93968 14.70061,-4.37687 14.67263,-11.44134 z m 697.07394,14.97035 c 16.46494,-78.9547 78.61972,-145.90225 61.26414,-232.0194 9.21896,-64.55387 -51.48439,-149.36837 -52.74159,-185.96487 65.69894,19.55767 60.02537,111.07471 76.74419,166.4843 8.09011,89.38762 -15.08541,189.27481 -80.99277,252.33737 l -4.22065,-0.82695 z m 10.13816,-1.63702 c 99.16384,-123.0528 98.39953,-315.48279 -3.063,-436.9693 11.48481,82.30022 79.77277,151.00727 56.47433,239.68489 10.51612,68.10963 -66.63148,154.23702 -53.41133,197.28441 z m -667.28268,-55.15941 c -77.501495,-88.7058 -78.006889,-233.88989 -1.18777,-323.17097 14.46215,69.20892 -61.394673,126.77232 -28.54173,198.73663 -7.45919,38.7432 69.4767,108.87886 29.7295,124.43434 z m 13.56246,-10.74367 c -50.4012,-77.6185 -72.708526,-187.73217 -15.90585,-268.0658 -3.29239,-61.53405 -59.589972,54.09899 -49.29445,78.76082 -10.349666,55.13746 7.97282,188.51148 65.2003,189.30498 z m 589.64464,8.39151 c 19.73956,-77.43615 75.56989,-161.36176 27.26381,-240.0052 -29.20259,-30.39291 -17.75955,-97.70842 16.46342,-36.72594 35.81941,86.34994 37.198,202.12889 -31.98106,272.61328 -3.91539,1.37262 -7.83078,2.74524 -11.74617,4.11786 z m 13.58445,-5.11832 c 68.48389,-83.94036 63.97156,-209.1728 10.97394,-299.70882 -26.59972,50.0475 49.31393,105.34658 19.48502,166.90283 16.54017,37.0587 -74.28749,137.97643 -30.45896,132.80599 z m -68.45139,-44.502 c 36.33635,-63.65956 22.48637,-151.17638 15.88302,-203.98531 62.04593,38.54438 43.87601,163.416 -11.66808,206.5892 l -3.65899,-2.26044 z m 22.95666,-15.46056 c 47.79158,-52.91281 24.21936,-187.54378 -14.06888,-197.07056 22.73968,69.69419 34.43951,139.48829 -2.57513,204.44763 4.11413,8.87715 14.75456,-7.114 16.64401,-7.37707 z m -524.99835,12.92579 c -53.97242,-53.34013 -39.45684,-196.80411 9.53037,-209.17566 -6.55076,68.67821 -44.71399,138.59461 10.83066,198.36269 3.65792,12.68346 -11.77366,16.68253 -20.36103,10.81297 z m 16.34627,-1.33333 c -40.18214,-59.69808 -21.94004,-145.55402 -16.49506,-196.34052 -49.36045,42.98854 -38.37202,145.38587 4.98933,193.63323 z m 32.81069,-46.17145 c -42.61154,-24.68693 8.26214,-154.72359 9.23432,-76.99781 -2.78266,24.06108 14.18252,59.69536 -9.23432,76.99781 z m 19.56228,-4.8564 c -30.41138,-12.46955 6.97503,-134.48366 -33.81521,-67.09751 -4.24071,25.3538 2.31082,63.77215 33.81521,67.09751 z m 389.13383,2.40712 c 13.26996,-23.27055 -19.06026,-131.89302 28.95524,-85.81337 9.15151,29.52943 6.27623,75.05927 -28.95524,85.81337 z m 12.01019,-0.0459 c 41.48923,-26.69775 -8.57838,-151.35797 -4.74145,-60.61508 -2.13075,20.10364 -5.82738,42.03148 4.74145,60.61508 z"
       id="path1" />
    <path
       style="fill:#010101;fill-opacity:0.797707;stroke:#000000;stroke-width:1.00158;stroke-linecap:round;stroke-linejoin:round"
       d="m 664.73369,446.54123 c -6.71432,-1.80968 -8.10481,-10.16715 -5.29332,-15.72172 3.21936,-7.55389 7.06879,-14.9278 8.21342,-23.17719 3.98965,-20.61932 0.59445,-42.30311 -8.09972,-61.30676 -6.42334,-5.91784 -3.01944,-19.78033 6.39879,-19.83313 5.59935,2.37286 7.03601,9.61062 10.28068,14.31242 10.52402,22.32068 11.86508,48.14471 7.40757,72.14286 -3.50988,12.51389 -6.75565,25.85586 -15.43131,35.94361 -1.4829,-0.15104 -2.57082,-1.29141 -3.47611,-2.36009 z"
       id="path2" />
    <path
       style="fill:#010101;fill-opacity:0.797707;stroke:#000000;stroke-width:1.00158;stroke-linecap:round;stroke-linejoin:round"
       d="m 705.65458,495.78836 c -6.11277,-22.29867 22.20532,-36.50554 22.33602,-59.23128 15.12494,-48.93836 5.50561,-104.99876 -25.76328,-145.67953 3.78714,-25.57544 29.35931,3.10981 31.24569,16.73575 31.22678,59.4118 24.62061,136.99877 -17.50031,189.51224 -2.8829,3.07736 -8.03281,1.7079 -10.31812,-1.33718 z"
       id="path3" />
    <path
       style="fill:#010101;fill-opacity:0.797707;stroke:#000000;stroke-width:1.00158;stroke-linecap:round;stroke-linejoin:round"
       d="m 758.82537,544.66603 c -4.92043,-24.63995 24.87197,-38.58605 26.98313,-62.67655 30.3563,-76.04298 24.31998,-169.45918 -26.89787,-235.18715 -8.17174,-29.75103 32.79494,-0.21752 32.32505,16.29554 40.79307,79.41762 43.20012,180.65801 -2.62939,258.48707 -6.87709,7.52653 -18.17212,33.35651 -29.78092,23.08109 z"
       id="path4" />
    <path
       style="fill:#010101;fill-opacity:0.797707;stroke:#000000;stroke-width:1.00158;stroke-linecap:round;stroke-linejoin:round"
       d="m 812.82047,601.99077 c 4.35477,-36.87727 37.99395,-61.71608 44.3457,-98.4784 37.00426,-102.8118 22.58803,-224.84159 -44.38808,-312.32102 12.80086,-39.88128 44.53735,38.18032 52.26353,54.12641 47.81261,105.1115 39.02605,232.14923 -21.09706,330.42073 -6.69796,11.25341 -14.85596,30.02699 -31.12409,26.25228 z"
       id="path5" />
    <path
       style="fill:#010101;fill-opacity:0.797707;stroke:#000000;stroke-width:1.00158;stroke-linecap:round;stroke-linejoin:round"
       d="m 442.46237,788.42018 c -94.84934,-20.4413 -121.60987,-129.64623 -124.5128,-213.52404 -13.3024,-97.5063 -43.12142,-213.39288 28.7991,-295.97011 78.98338,-84.79224 245.25165,-42.54373 264.3001,75.5925 18.72764,109.79541 -15.40402,219.2766 -31.24554,327.40284 -17.29546,58.16274 -70.53549,119.35937 -137.34086,106.49881 z m 33.57554,-158.53787 c 71.5504,-20.78313 9.74777,-139.68138 -50.84882,-98.70704 -45.24577,33.0646 -7.03553,127.02389 50.84882,98.70704 z m -2.09428,-156.76562 c 88.84208,-17.58468 57.27929,-171.66739 -29.9494,-160.0394 -74.85327,7.93152 -92.79185,115.19015 -31.92925,153.22493 17.82404,12.41947 41.817,15.80058 61.87865,6.81447 z"
       id="path6" />
    <path
       style="fill:#010101;fill-opacity:0.797707;stroke:#000000;stroke-width:1.00158;stroke-linecap:round;stroke-linejoin:round"
       d=""
       id="path7" />
    <path
       style="fill:#010101;fill-opacity:0.797707;stroke:#000000;stroke-width:1.00158;stroke-linecap:round;stroke-linejoin:round"
       d="m 249.35361,437.78202 c -15.73418,-34.11139 -14.29813,-76.72116 6.66184,-108.29944 8.04259,-6.6292 18.87434,4.50155 10.37537,11.99966 -10.54491,23.31275 -14.79688,50.14951 -7.08582,74.97789 0.28736,10.71907 17.71045,27.76231 0.48172,32.03081 -7.77301,2.13473 -7.84151,-5.88045 -10.43311,-10.70892 z"
       id="path8" />
    <path
       style="fill:#010101;fill-opacity:0.797707;stroke:#000000;stroke-width:1.00158;stroke-linecap:round;stroke-linejoin:round"
       d="m 205.86877,496.44291 c -47.03164,-63.52202 -48.07763,-160.6224 5.97651,-220.3745 18.29791,8.57272 2.51695,27.74232 -4.29194,38.49214 -28.21744,52.6876 -23.76855,121.76127 12.73307,169.3869 5.60125,7.67982 -7.90416,20.84977 -14.41764,12.49546 z"
       id="path9" />
    <path
       style="fill:#010101;fill-opacity:0.797707;stroke:#000000;stroke-width:1.00158;stroke-linecap:round;stroke-linejoin:round"
       d="m 152.54114,542.27404 c -63.289298,-78.87906 -68.574965,-198.01376 -15.94555,-283.71688 5.69209,-10.81722 26.61182,-41.78627 32.22498,-16.27543 -13.20452,20.57123 -27.98614,42.15046 -35.4879,66.44363 -25.55863,71.36955 -15.49372,154.89745 29.35106,216.51017 13.54039,8.77585 0.23759,33.73644 -10.14259,17.03851 z"
       id="path10" />
    <path
       style="fill:#4e4e4e;fill-opacity:0.79770702;stroke:#000000;stroke-width:1.00158;stroke-linecap:round;stroke-linejoin:round"
       d="m 94.309164,596.40676 c -16.359862,-23.13398 -25.476799,-39.00989 -35.778784,-62.30389 -21.330163,-48.23002 -32.87607,-106.15116 -30.891419,-154.96974 1.105504,-27.19328 5.914361,-59.98412 12.473488,-85.0548 5.479599,-20.94443 18.653352,-52.28144 32.305109,-76.84565 16.660943,-29.97877 27.330014,-44.34353 32.935052,-44.34353 3.34676,0 8.60969,5.61328 8.60969,9.18283 0,1.28768 -4.17122,8.87921 -9.26938,16.87006 -29.86056,46.80336 -42.938754,78.23324 -52.540775,126.26746 -5.517781,27.60276 -6.742042,46.33753 -5.114028,78.25957 0.720777,14.13296 2.103334,30.94967 3.07235,37.37047 4.196811,27.80854 18.031649,71.96814 29.980692,95.69577 5.899776,11.71539 22.256361,39.39418 29.005871,49.08403 3.28741,4.71953 5.9762,8.97227 5.97509,9.45054 -0.001,0.47827 -2.65287,3.83164 -5.89281,7.45193 l -5.89081,6.58236 z"
       id="path11" />
    <path
       style="fill:#a0a0a0;fill-opacity:0.797707;stroke:#000000;stroke-width:1.00157;stroke-linecap:round;stroke-linejoin:round"
       d="m 450.47697,630.44727 c -26.30428,-4.55147 -46.08598,-32.06003 -40.95495,-58.49273 3.29338,-25.19679 27.45951,-46.67081 53.27642,-43.66914 22.3742,2.51344 39.09356,22.78299 44.03496,43.72015 3.38983,16.15151 -0.99331,34.35474 -14.06726,45.14302 -11.39705,9.83891 -27.27875,15.08695 -42.28917,13.2987 z"
       id="path12" />
    <path
       style="fill:#c7c7c7;fill-opacity:0.797707;stroke:#000000;stroke-width:1.00157;stroke-linecap:round;stroke-linejoin:round"
       d="m 442.30867,466.47117 c -38.44927,-1.2788 -61.88768,-44.91928 -50.61666,-79.58988 6.08229,-35.9647 38.78795,-74.77877 78.59264,-65.21062 45.96571,11.65835 65.53902,69.83086 45.01138,110.28802 -12.01182,27.19637 -43.53717,47.19789 -72.98736,34.51248 z"
       id="path13" />
    <path
       style="fill:#030303;fill-opacity:0.797707;stroke:#000000;stroke-width:1.00157;stroke-linecap:round;stroke-linejoin:round"
       d="m 99.090671,600.74772 c -91.2568125,-120.04805 -93.7647812,-301.49855 -0.171487,-420.87407 28.015026,-10.10942 -6.572391,34.72716 -12.070005,47.16031 -63.214805,109.84197 -52.19622,254.50313 20.146021,357.31279 7.47937,6.23147 0.73711,28.78891 -7.904529,16.40097 z"
       id="path14" />
  </g>
</svg>
